<svg width="64" height="64" viewBox="0 0 64 64" fill="none" xmlns="http://www.w3.org/2000/svg">
<path d="M42.6667 58.6667V48.3467C42.7667 47.0751 42.5949 45.7968 42.1627 44.5968C41.7305 43.3967 41.0478 42.3025 40.16 41.3867C48.5333 40.4533 57.3333 37.28 57.3333 22.72C57.3327 18.9969 55.9005 15.4165 53.3333 12.72C54.549 9.46268 54.463 5.86226 53.0933 2.66666C53.0933 2.66666 49.9467 1.73333 42.6667 6.61333C36.5547 4.95685 30.112 4.95685 24 6.61333C16.72 1.73333 13.5733 2.66666 13.5733 2.66666C12.2037 5.86226 12.1177 9.46268 13.3333 12.72C10.747 15.4365 9.3134 19.0492 9.33334 22.8C9.33334 37.2533 18.1333 40.4267 26.5067 41.4667C25.6293 42.3733 24.9527 43.4544 24.5208 44.6398C24.089 45.8252 23.9115 47.0882 24 48.3467V58.6667M24 50.6667C10.6667 54.6667 10.6667 44 5.33334 42.6667L24 50.6667Z" stroke="white" stroke-width="5" stroke-linecap="round" stroke-linejoin="round"/>
</svg>
