<svg width="64" height="64" viewBox="0 0 64 64" fill="none" xmlns="http://www.w3.org/2000/svg">
<path d="M60 9.02522C57.5624 10.7192 54.8635 12.0148 52.0073 12.8622C50.4742 11.1256 48.4368 9.89467 46.1706 9.33601C43.9044 8.77734 41.5187 8.91787 39.3362 9.73858C37.1537 10.5593 35.2797 12.0206 33.9676 13.9248C32.6555 15.8291 31.9687 18.0844 32 20.3858V22.8936C27.5267 23.0079 23.0942 22.0304 19.0971 20.0483C15.1001 18.0662 11.6626 15.1409 9.09091 11.5331C9.09091 11.5331 -1.09091 34.1037 21.8182 44.1351C16.5759 47.641 10.3309 49.3989 4 49.1508C26.9091 61.69 54.9091 49.1508 54.9091 20.3105C54.9067 19.612 54.8386 18.9151 54.7055 18.229C57.3034 15.7049 59.1367 12.5179 60 9.02522Z" stroke="white" stroke-width="6" stroke-linecap="round" stroke-linejoin="round"/>
</svg>
