<svg width="64" height="64" viewBox="0 0 64 64" fill="none" xmlns="http://www.w3.org/2000/svg">
<path d="M60.1067 17.12C59.7899 15.8544 59.1447 14.6949 58.2364 13.7584C57.328 12.822 56.1887 12.1418 54.9333 11.7867C50.3467 10.6667 32 10.6667 32 10.6667C32 10.6667 13.6533 10.6667 9.06666 11.8933C7.81131 12.2485 6.67193 12.9286 5.76358 13.8651C4.85523 14.8015 4.21009 15.9611 3.89332 17.2267C3.05389 21.8815 2.64328 26.6035 2.66666 31.3333C2.63673 36.0988 3.04737 40.8568 3.89332 45.5467C4.24255 46.7729 4.90214 47.8884 5.80837 48.7853C6.7146 49.6822 7.83684 50.3302 9.06666 50.6667C13.6533 51.8933 32 51.8933 32 51.8933C32 51.8933 50.3467 51.8933 54.9333 50.6667C56.1887 50.3115 57.328 49.6314 58.2364 48.6949C59.1447 47.7585 59.7899 46.5989 60.1067 45.3333C60.9396 40.7136 61.3502 36.0276 61.3333 31.3333C61.3632 26.5679 60.9526 21.8099 60.1067 17.12V17.12Z" stroke="white" stroke-width="5" stroke-linecap="round" stroke-linejoin="round"/>
<path d="M26 40.0533L41.3333 31.3333L26 22.6133V40.0533Z" stroke="white" stroke-width="5" stroke-linecap="round" stroke-linejoin="round"/>
</svg>
